<svg xmlns="http://www.w3.org/2000/svg">
  <path d="M312.065,248.47c-8.824,0-16.003,7.179-16.003,16.003c0,8.825,7.179,16.005,16.003,16.005s16.004-7.18,16.004-16.005C328.069,255.649,320.89,248.47,312.065,248.47z"/>
  <path d="M288.069,304.474c0-8.824-7.18-16.003-16.004-16.003s-16.003,7.179-16.003,16.003c0,8.825,7.179,16.005,16.003,16.005S288.069,313.299,288.069,304.474z"/>
  <path d="M184.281,264.194h-7.896v-8.021c0-8.822-7.178-16-16-16h-7.77c-8.822,0-16,7.178-16,16v8.021h-8.178c-8.822,0-16,7.178-16,16v7.769c0,8.822,7.178,16,16,16h8.178v8.334c0,8.822,7.178,16,16,16h7.77c8.822,0,16-7.178,16-16v-8.334h7.896c8.822,0,16-7.178,16-16v-7.769C200.281,271.372,193.104,264.194,184.281,264.194z M184.281,287.963h-15.896c-4.418,0-8,3.582-8,8l0.002,16.334h-7.771v-16.334c0-4.418-3.582-8-8-8h-16.178v-7.769h16.178c4.418,0,8-3.582,8-8v-16.021h7.77v16.021c0,4.418,3.582,8,8,8h15.896V287.963z"/>
  <path d="M224.396,360.805c-4.418,0-8,3.582-8,8V392c0,4.418,3.582,8,8,8s8-3.582,8-8v-23.195C232.396,364.386,228.813,360.805,224.396,360.805z"/>
  <path d="M192.281,360.805c-4.418,0-8,3.582-8,8V392c0,4.418,3.582,8,8,8s8-3.582,8-8v-23.195C200.281,364.386,196.699,360.805,192.281,360.805z"/>
  <path d="M256.063,360.805c-4.418,0-8,3.582-8,8V392c0,4.418,3.582,8,8,8s8-3.582,8-8v-23.195C264.063,364.386,260.48,360.805,256.063,360.805z"/>
  <path d="M160.281,360.805c-4.418,0-8,3.582-8,8V392c0,4.418,3.582,8,8,8s8-3.582,8-8v-23.195C168.281,364.386,164.699,360.805,160.281,360.805z"/>
  <path d="M288.063,360.805c-4.418,0-8,3.582-8,8V392c0,4.418,3.582,8,8,8s8-3.582,8-8v-23.195C296.063,364.386,292.48,360.805,288.063,360.805z"/>
  <path d="M328.063,0H111.938c-22.056,0-40,17.944-40,40v360c0,22.056,17.944,40,40,40h216.125c22.056,0,40-17.944,40-40V40C368.063,17.944,350.118,0,328.063,0z M352.063,400c0,13.234-10.767,24-24,24H111.938c-13.233,0-24-10.766-24-24V40c0-13.234,10.767-24,24-24h216.125c13.233,0,24,10.766,24,24V400z"/>
  <path d="M120.438,207.548h199.125c4.418,0,8-3.582,8-8V48c0-4.418-3.582-8-8-8H120.438c-4.418,0-8,3.582-8,8v151.548C112.438,203.966,116.02,207.548,120.438,207.548z"/>
</svg>
